<?xml version="1.0" encoding="UTF-8"?>
<svg xmlns="http://www.w3.org/2000/svg" viewBox="0 0 2048 2048">
<style>
  path { fill: #FFFFFF; }
  @media (prefers-color-scheme: light) {
    path { fill: #1E293B; }
  }
</style>
<path d="M0,0 L352,0 L361,2 L372,8 L383,19 L388,29 L391,40 L392,133 L395,223 L398,289 L403,367 L407,414 L413,470 L419,514 L427,561 L434,595 L440,615 L448,636 L460,662 L471,682 L487,706 L496,718 L507,732 L521,747 L537,763 L548,772 L555,780 L559,789 L560,793 L560,808 L557,817 L550,826 L540,834 L524,843 L509,850 L493,855 L476,858 L453,858 L437,855 L424,851 L404,842 L385,833 L369,828 L355,826 L346,826 L328,829 L312,835 L298,843 L273,860 L256,871 L231,883 L216,888 L202,891 L181,893 L171,893 L150,891 L129,886 L114,880 L93,869 L51,841 L35,833 L24,829 L5,826 L-11,827 L-27,831 L-42,837 L-66,849 L-80,854 L-92,857 L-100,858 L-123,858 L-140,855 L-156,850 L-174,842 L-188,834 L-198,826 L-204,818 L-208,807 L-208,793 L-204,782 L-198,774 L-187,764 L-179,757 L-159,737 L-150,726 L-139,712 L-127,695 L-118,680 L-108,662 L-98,641 L-89,618 L-81,591 L-74,557 L-66,508 L-61,471 L-54,406 L-49,342 L-45,273 L-42,204 L-40,138 L-39,40 L-35,26 L-28,16 L-20,8 L-8,2 Z M3,33 L-3,37 L-6,42 L-7,116 L-10,218 L-12,269 L-16,340 L-21,400 L-28,470 L-38,540 L-44,575 L-51,605 L-57,626 L-67,651 L-79,677 L-91,699 L-107,723 L-121,742 L-133,756 L-144,768 L-164,788 L-175,797 L-176,801 L-171,806 L-157,814 L-141,821 L-131,824 L-124,825 L-100,825 L-88,822 L-77,818 L-61,810 L-46,803 L-31,798 L-12,794 L-9,789 L2,760 L12,729 L24,683 L32,642 L38,603 L43,562 L48,510 L53,436 L56,370 L58,303 L60,211 L60,33 Z M93,33 L92,191 L90,301 L88,362 L85,428 L80,501 L75,560 L67,622 L60,665 L50,710 L45,729 L34,765 L24,792 L24,795 L46,802 L62,810 L81,822 L103,837 L117,845 L132,852 L148,857 L153,858 L160,858 L160,33 Z M193,33 L192,41 L192,858 L194,859 L209,856 L225,850 L248,838 L264,827 L282,815 L298,806 L312,800 L329,795 L326,786 L313,748 L303,713 L295,677 L288,641 L281,592 L276,549 L271,486 L267,422 L264,355 L262,293 L260,167 L259,33 Z M291,33 L291,116 L292,195 L295,328 L298,406 L301,465 L305,519 L311,578 L316,617 L324,663 L330,691 L341,732 L353,768 L361,789 L364,794 L383,798 L401,804 L431,819 L447,824 L454,825 L476,825 L490,822 L506,816 L521,808 L528,802 L527,797 L516,787 L508,780 L489,761 L480,750 L469,737 L457,720 L446,703 L434,682 L422,658 L412,633 L404,609 L396,574 L388,526 L380,469 L372,387 L367,319 L363,241 L360,147 L358,41 L352,34 L349,33 Z "  transform="translate(848,578)"/>
<path d="M0,0 L217,0 L226,3 L231,9 L232,12 L232,23 L225,31 L220,33 L-2,33 L-9,29 L-13,23 L-14,15 L-11,7 L-6,2 Z "  transform="translate(536,693)"/>
<path d="M0,0 L114,0 L123,3 L128,9 L130,15 L129,23 L125,29 L118,33 L-104,33 L-110,30 L-115,25 L-116,22 L-116,11 L-112,5 L-106,1 Z "  transform="translate(1396,693)"/>
<path d="M0,0 L220,0 L228,5 L232,13 L232,20 L228,28 L220,33 L1,33 L-7,28 L-11,22 L-12,14 L-9,6 L-3,1 Z "  transform="translate(534,801)"/>
<path d="M0,0 L132,0 L132,33 L1,33 L-7,29 L-11,23 L-12,20 L-12,13 L-8,5 L-3,1 Z "  transform="translate(1294,801)"/>
<path d="M0,0 L67,0 L67,32 L66,33 L0,33 Z "  transform="translate(1459,801)"/>
<path d="M0,0 L217,0 L222,3 L227,9 L228,18 L225,26 L219,31 L216,32 L2,32 L-6,27 L-9,22 L-9,10 L-6,5 Z "  transform="translate(532,909)"/>
<path d="M0,0 L217,0 L222,3 L226,8 L227,10 L227,21 L224,27 L219,31 L216,32 L2,32 L-4,29 L-9,23 L-9,9 L-5,3 Z "  transform="translate(1298,909)"/>
<path d="M0,0 L66,1 L66,33 L-1,33 L-1,1 Z "  transform="translate(523,1007)"/>
<path d="M0,0 L116,0 L122,4 L126,9 L127,12 L127,20 L124,26 L118,31 L115,32 L0,32 Z "  transform="translate(623,1008)"/>
<path d="M0,0 L200,1 L206,5 L210,11 L210,22 L206,29 L202,32 L199,33 L-5,33 L-11,30 L-16,24 L-17,21 L-17,13 L-14,7 L-9,2 Z "  transform="translate(1315,1007)"/>
<path d="M0,0 L191,0 L197,3 L201,8 L203,13 L202,23 L196,30 L192,32 L0,32 L-6,28 L-10,22 L-11,14 L-8,6 L-2,1 Z "  transform="translate(533,1107)"/>
<path d="M0,0 L190,0 L197,4 L201,11 L201,22 L197,28 L191,32 L-1,32 L-7,28 L-11,22 L-12,14 L-9,6 L-3,1 Z "  transform="translate(1324,1107)"/>
</svg>
